<svg xmlns="http://www.w3.org/2000/svg" width="86" height="17" fill="none"  xmlns:v="https://vecta.io/nano"><path d="M3.691 16.479l-3.627.265 1.858-5.79.796-2.519.796-2.563.752-2.475.619-2.21c.796 0 1.593-.044 2.3-.133L9.53.832l-.133 1.105-.177 1.282c-.044.442-.133.884-.221 1.37l-.265 1.812-.398 2.74h.265l1.062-2.785.708-1.812.531-1.37.531-1.282.487-1.061 1.018-.088.973-.133.973-.177 1.106-.177-.442 2.652-.354 2.696-.31 2.652-.265 2.475-.487 5.348-3.849.663c0-.088 0-.265.044-.575 0-.309.044-.707.088-1.193l.133-1.591.177-1.724a19.29 19.29 0 0 1 .221-1.68l.221-1.37h-.177l-.708 1.945-.752 2.077-.752 2.077-.664 1.945-1.327.044c-.354.044-.796.044-1.283.088l.708-8.177h-.354c-.044.177-.088.53-.221.972l-.398 1.547-.487 1.812-.487 1.724-.398 1.326c-.088.221-.133.442-.177.486zm18.049-.707l-7.166 1.105 2.92-15.735 6.99-.575-.265.972c-.088.265-.133.575-.221.884-.044.309-.133.575-.177.796-.133 0-.354.044-.619.044h-.885-.929-.84l-.796 3.934 1.283-.088h.973c.31 0 .575 0 .752-.044l-.177 1.238-.177 1.238c-.133 0-.398.044-.708.044l-1.017.044-1.239.044-.752 4.066 3.229-.486-.177 2.519zm3.539.442l-3.229.751 1.239-6.144.487-2.652.487-2.696.398-2.564.265-2.21c.177 0 .354.044.487.044h.487.752c.31 0 .575 0 .885-.044l.973-.044.531 3.005.487 2.564.442 2.254.177-1.017.265-1.238.265-1.282.265-1.282L31.56.7l2.698-.354-1.327 6.409-.531 2.652-.487 2.564-.354 2.298-.265 1.768c-.044 0-.221.044-.531.088-.31.088-.663.133-1.017.221l-1.15.265c-.398.088-.664.177-.885.265l-.265-3.359-.133-1.414-.177-1.37-.177-1.238c-.044-.398-.133-.707-.177-.972l-.177.972c-.088.354-.133.751-.221 1.193l-.221 1.282-.221 1.282-.664 2.961zm12.652.044l-3.981.619.973-4.773.398-2.077.398-2.122.354-2.033.265-1.812c-.354-.044-.664-.044-1.017-.044s-.708-.044-1.017-.133c0-.221.044-.53.044-.84v-.928l.044-1.061c.398.044.752.044 1.15.044l1.15.044 2.168-.044 1.946-.133 1.77-.177-.265 1.193-.221 1.061-.177.884-1.017.133-.973.133-.354 1.68-.354 1.901-.31 1.989-.31 1.945-.664 4.552zM52.352 4.899c0 1.193-.133 2.343-.398 3.403s-.619 2.033-1.017 2.917c-.442.884-.929 1.68-1.504 2.387a13.8 13.8 0 0 1-1.77 1.812c-.619.486-1.239.884-1.858 1.105-.619.265-1.239.398-1.814.398-.487 0-.929-.088-1.327-.265s-.752-.442-1.017-.796c-.354-.398-.575-.84-.752-1.414s-.265-1.238-.265-2.033c0-.84.088-1.68.31-2.608a21.59 21.59 0 0 1 .84-2.74c.354-.928.796-1.768 1.327-2.563s1.062-1.547 1.681-2.166S46.07 1.23 46.778.832c.708-.354 1.46-.53 2.212-.53.664 0 1.194.133 1.637.398s.796.619 1.017 1.061c.265.442.398.928.531 1.459.133.575.177 1.105.177 1.68zm-8.405 6.939c0 .177.044.354.089.53s.133.354.265.486c.088.133.221.265.398.354s.31.133.487.133c.664 0 1.239-.221 1.77-.707s.929-1.017 1.283-1.68.619-1.37.796-2.121.265-1.414.265-2.077c0-.177 0-.354-.044-.575a1.22 1.22 0 0 0-.133-.575c-.044-.177-.177-.309-.31-.442s-.31-.177-.575-.177c-.487 0-.885.133-1.283.354s-.752.53-1.062.928-.575.84-.84 1.326l-.619 1.503a6.17 6.17 0 0 0-.354 1.503l-.133 1.238zm10.573 4.11l-3.583.928 1.15-5.746.442-2.475.442-2.564.398-2.475.31-2.166c.84-.265 1.77-.442 2.743-.575S58.368.7 59.341.7c.575 0 1.062.088 1.416.177.398.133.663.309.885.575a2.2 2.2 0 0 1 .442.84c.089.309.133.707.133 1.105 0 .575-.088 1.149-.31 1.724s-.487 1.105-.84 1.635-.752.972-1.194 1.414-.929.751-1.46 1.017l.84 1.945.841 1.989.929 2.21-3.45 1.193-.796-2.652-.31-1.061-.265-1.017-.221-.884-.088-.619-.31.088-.31 1.68-.354 1.856-.398 2.033zm2.345-12.199l-.708 3.536c.265-.044.619-.133 1.017-.354s.796-.442 1.15-.751c.354-.265.664-.575.929-.884s.398-.575.398-.84c0-.177-.044-.309-.133-.398s-.265-.177-.442-.221-.398-.088-.619-.088h-.708-.487-.398zm7.565 12.641c-.133 0-.398 0-.796.044l-1.194.133-1.106.133-.531.088.442-2.122.487-2.431.487-2.564.398-2.519.929-5.834 3.451-.53-.973 5.834-.398 2.519-.398 2.564-.398 2.475-.398 2.21zm10.528-4.994c0 .84-.177 1.591-.487 2.254s-.752 1.238-1.283 1.724a5.92 5.92 0 0 1-1.902 1.149c-.752.265-1.504.398-2.345.398-.575 0-1.194-.177-1.769-.486s-1.15-.84-1.681-1.503l1.637-3.182c.088.177.265.398.487.575.221.221.442.354.708.53l.796.354c.265.088.487.133.708.133.177 0 .354-.044.531-.088s.354-.133.531-.265.31-.265.398-.398.133-.354.133-.53c0-.354-.133-.663-.354-.972s-.531-.575-.84-.84l-1.106-.84c-.398-.265-.752-.575-1.106-.884s-.619-.663-.841-1.017-.354-.796-.354-1.282c0-.751.221-1.459.708-2.122s1.017-1.238 1.725-1.724c.664-.486 1.416-.84 2.256-1.149.796-.265 1.593-.442 2.3-.442.398 0 .796.044 1.15.133s.663.265.929.486.442.486.619.796c.133.309.221.751.221 1.238 0 .221 0 .398-.044.619s-.088.442-.088.663l-3.185.928c.044-.133.044-.221.088-.354 0-.133.044-.221.044-.354 0-.442-.089-.751-.221-.972-.177-.177-.354-.309-.619-.309-.133 0-.265.044-.442.133s-.354.221-.487.354c-.177.133-.31.309-.442.486s-.177.398-.177.619c0 .354.088.663.31.884.177.221.442.442.752.663s.619.398.973.619a4.28 4.28 0 0 1 .973.84c.31.354.531.751.752 1.282-.044.398.044 1.061.044 1.856zm5.662 4.862l-3.981.619.973-4.773.398-2.077.398-2.122.354-2.033.265-1.812c-.354-.088-.708-.088-1.062-.088s-.708-.044-1.017-.133c0-.221.044-.53.044-.84l.044-.928.044-1.061c.398.044.752.044 1.15.044l1.15.044 2.168-.044 1.947-.133 1.769-.177-.265 1.193-.221 1.061-.177.884c-.31.088-.664.133-.973.177l-.973.133-.354 1.68-.354 1.901-.31 1.989-.31 1.945-.708 4.552z" fill="#2d5ed2"/></svg>